<?xml version="1.0" encoding="utf-8"?>
<!-- Generator: Adobe Illustrator 19.0.0, SVG Export Plug-In . SVG Version: 6.00 Build 0)  -->
<svg version="1.1" id="Layer_1" xmlns="http://www.w3.org/2000/svg" xmlns:xlink="http://www.w3.org/1999/xlink" x="0px" y="0px"
	 viewBox="-293 65 200.3 200.3" style="enable-background:new -293 65 200.3 200.3;" xml:space="preserve">
<style type="text/css">
	.st0{fill:#808080;}
	.st1{fill:#A5A5A5;}
	.st2{fill:#FFFFFF;}
	.st3{fill:#515151;}
</style>
<g>
	<g transform="translate(27.428571, 44.800000)">
		<circle class="st0" cx="-220.3" cy="120.3" r="100.1"/>
		<circle class="st1" cx="-220" cy="120.6" r="66.7"/>
		<circle class="st2" cx="-220" cy="120.6" r="33.8"/>
	</g>
	<g transform="translate(55.771429, 264.228571)">
		<path class="st3" d="M-342.2-97.3h86.6"/>
		<path class="st3" d="M-248.3-97.9c0.6,0.3,0.6,0.8,0,1.1l-8,4c-0.6,0.3-1.1,0-1.1-0.7v-7.6c0-0.7,0.5-1,1.1-0.7L-248.3-97.9
			L-248.3-97.9z"/>
		<path class="st3" d="M-334.5-103.1l5.8,5.8"/>
		<path class="st3" d="M-338.8-103.1l5.8,5.8"/>
		<path class="st3" d="M-343-103.1l5.8,5.8"/>
		<path class="st3" d="M-337.2-97.3l-5.8,5.8"/>
		<path class="st3" d="M-333-97.3l-5.8,5.8"/>
		<path class="st3" d="M-328.7-97.3l-5.8,5.8"/>
		<path class="st3" d="M-330.3-103.1l5.8,5.8"/>
		<path class="st3" d="M-324.5-97.3l-5.8,5.8"/>
	</g>
</g>
</svg>
