<?xml version="1.0" encoding="utf-8"?>
<!-- Generator: Adobe Illustrator 19.0.0, SVG Export Plug-In . SVG Version: 6.00 Build 0)  -->
<svg version="1.1" id="Layer_1" xmlns="http://www.w3.org/2000/svg" xmlns:xlink="http://www.w3.org/1999/xlink" x="0px" y="0px"
	 viewBox="-118.9 -183.2 103.5 103" style="enable-background:new -118.9 -183.2 103.5 103;" xml:space="preserve">
<style type="text/css">
	.st0{fill:#A5A5A5;stroke:#808080;stroke-width:3;stroke-miterlimit:10;}
</style>
<g>
	<path class="st0" d="M-59.6-154.8l-0.1-26.9h-15l0.1,26.9l7.5,10.3L-59.6-154.8z"/>
	<path class="st0" d="M-74.6-108.7v27h15v-27l-7.5-10.3L-74.6-108.7z"/>
	<path class="st0" d="M-59.6-108.7l15.8,21.8l12.1-8.8l-15.8-21.8l-12.1-3.9V-108.7z"/>
	<path class="st0" d="M-74.6-154.8l-15.9-21.8l-12.1,8.8l15.8,21.8l12.2,3.9V-154.8z"/>
	<path class="st0" d="M-86.8-146l-25.6-8.3l-4.6,14.2l25.6,8.4l12.1-4L-86.8-146z"/>
	<path class="st0" d="M-55-127.8l7.5,10.3l25.6,8.3l4.6-14.2l-25.6-8.3L-55-127.8z"/>
	<path class="st0" d="M-42.9-131.7l25.6-8.4l-4.6-14.2l-25.6,8.3l-7.5,10.3L-42.9-131.7z"/>
	<path class="st0" d="M-91.4-131.7l-25.6,8.3l4.6,14.2l25.6-8.3l7.5-10.3L-91.4-131.7z"/>
	<path class="st0" d="M-86.8-117.5l-15.8,21.8l12.1,8.8l15.9-21.8v-12.7L-86.8-117.5z"/>
	<path class="st0" d="M-47.5-146l15.8-21.8l-12.1-8.8l-15.8,21.8v12.7L-47.5-146z"/>
</g>
</svg>
