<?xml version="1.0" encoding="utf-8"?>
<!-- Generator: Adobe Illustrator 19.0.0, SVG Export Plug-In . SVG Version: 6.00 Build 0)  -->
<svg version="1.1" id="Layer_1" xmlns="http://www.w3.org/2000/svg" xmlns:xlink="http://www.w3.org/1999/xlink" x="0px" y="0px"
	 viewBox="0 0 338.1 61.8" style="enable-background:new 0 0 338.1 61.8;" xml:space="preserve">
<style type="text/css">
	.st0{fill:#555B69;}
	.st1{fill:#19B2DA;}
	.st2{fill:#4CC5F2;}
	.st3{fill:url(#SVGID_1_);}
</style>
<path class="st0" d="M87.3,28.3c6.5,0,10,4.9,10,10.9c0,0.6-0.1,1.8-0.1,1.8h-17c0.3,5,3.9,7.8,8,7.8c4,0,6.8-2.7,6.8-2.7l1.9,3.2
	c0,0-3.5,3.4-9,3.4c-7.4,0-12.4-5.3-12.4-12.2C75.6,33.1,80.6,28.3,87.3,28.3z M92.7,37.8c-0.1-3.9-2.6-5.9-5.5-5.9
	c-3.4,0-6.2,2.1-6.9,5.9H92.7z"/>
<path class="st0" d="M102.4,45.6c0,0,2.8,3.5,7,3.5c2.2,0,4.1-1,4.1-3c0-4.2-12.7-3.7-12.7-11.2c0-4.5,3.9-6.5,8.7-6.5
	c2.8,0,7.6,1,7.6,4.5V35h-4v-1.2c0-1.4-2.1-2-3.5-2c-2.6,0-4.3,0.9-4.3,2.8c0,4.4,12.7,3.5,12.7,11.2c0,4.1-3.7,6.8-8.6,6.8
	c-6.2,0-9.3-4.1-9.3-4.1L102.4,45.6z"/>
<path class="st0" d="M123.5,33.7c0-0.7-0.4-1-1-1h-1.9v-3.8h4.4c2.1,0,2.9,0.9,2.9,2.9v15.5c0,0.7,0.4,1,1,1h1.9v3.8h-4.4
	c-2.1,0-2.9-0.9-2.9-2.9V33.7z"/>
<path class="st0" d="M142.1,28.3c5.8,0,7.5,3.6,7.5,3.6h0.1c0,0,0-0.4,0-0.7c0-1.4,0.7-2.3,2.6-2.3h4.3v3.8h-1.8c-0.6,0-1,0.3-1,0.9
	v17.6c0,7.7-5.8,10.6-11.7,10.6c-2.8,0-5.7-0.8-8-1.9l1.5-3.6c0,0,2.9,1.6,6.4,1.6c4.1,0,7.4-1.8,7.4-6.5v-1.6
	c0-0.7,0.1-1.5,0.1-1.5h-0.1c-1.4,2.3-3.5,3.5-7,3.5c-6.4,0-10.4-5.2-10.4-11.9C131.9,33.3,135.7,28.3,142.1,28.3z M149.4,40
	c0-6.1-3-7.8-6.6-7.8c-4.1,0-6.4,2.9-6.4,7.7c0,4.8,2.5,8.1,6.7,8.1C146.4,48,149.4,46.1,149.4,40z"/>
<path class="st0" d="M158.5,33.7c0-0.7-0.4-1-1-1h-1.9v-3.8h4.3c2,0,2.9,0.9,2.9,2.6v0.9c0,0.7-0.1,1.3-0.1,1.3h0.1
	c0.9-2,3.7-5.3,8.7-5.3c5.5,0,8,3,8,8.9v10.1c0,0.7,0.4,1,1,1h1.9v3.8H178c-2.1,0-2.9-0.9-2.9-2.9v-11c0-3.3-0.6-5.8-4.4-5.8
	c-3.6,0-6.4,2.3-7.4,5.7c-0.3,0.9-0.4,2-0.4,3.1v10.9h-4.5V33.7z"/>
<path class="st1" d="M222.1,28.1c-7.1,0-12.8,5.1-12.8,12.3c0,0.9,0.1,1.8,0.3,2.7c-1,1-4.4,4-9.6,4c-5.9,0-10.6-5.2-10.6-11.6
	c0-6.8,4.6-11,10.5-11c2.9,0,6.8,1.1,6.8,3.5v1.8h5.5v-3.6c0-5.6-8.2-7.3-12.4-7.3c-9.5,0-16.6,7.2-16.6,16.6
	c0,9.7,6.8,17.2,16.8,17.2c6.1,0,10.3-3,12.1-4.6c2.3,2.9,6,4.6,10.2,4.6c7.2,0,12.9-5.1,12.9-12.3C235,33.3,229.3,28.1,222.1,28.1z
	 M222.1,47.8c-3.8,0-7-2.9-7-7.3c0-4.3,3.2-7.3,7-7.3c3.8,0,7,3,7,7.3C229.1,44.8,225.9,47.8,222.1,47.8z M260.3,46.2v-9.2
	c0-6.2-3-8.9-8.2-8.9c-4.7,0-7.3,2.9-8.3,4.9h-0.1c0,0,0.1-0.5,0.1-1v-0.7c0-1.7-1-2.6-3.1-2.6h-5.4v5h1.8c0.6,0,1,0.3,1,1v17.5h5.8
	V41.4c0-1.1,0.1-2.2,0.5-3.1c0.8-2.8,3.2-4.8,6.3-4.8c2.9,0,3.7,1.9,3.7,4.8V49c0,2.2,0.9,3.1,3.1,3.1h5.6v-4.9h-1.8
	C260.7,47.2,260.3,46.9,260.3,46.2z M290.8,28.1c-7,0-11.9,5.1-11.9,12.3c0,6.7,4.8,12.3,12.6,12.3c5.8,0,9.4-3.5,9.4-3.5l-2.4-4.1
	c0,0-2.8,2.6-6.6,2.6c-3.5,0-6.6-2.2-7-6.3h16.2c0,0,0.1-1.5,0.1-2.2C301.2,33.1,297.6,28.1,290.8,28.1z M285.1,37.4
	c0.6-2.9,2.8-4.7,5.8-4.7c2.4,0,4.3,1.9,4.4,4.7H285.1z M310.6,34.8c0-1.4,1.4-2.1,3.5-2.1c1.3,0,2.9,0.6,2.9,1.7v1.2h5.2V33
	c0-3.8-5.1-4.9-8.2-4.9c-4.9,0-9.1,2.2-9.1,6.9c0,7.6,12.4,7.6,12.4,10.9c0,1.6-1.4,2.3-3.2,2.3c-4,0-7-3.5-7-3.5l-2.8,3.8
	c0,0,3.3,4.2,9.8,4.2c5.1,0,9-2.8,9-7.2C323.1,37.7,310.6,38.5,310.6,34.8z M337,47.2c-1.6,0-4.7-0.6-4.7-4.4v-9.5h5.3v-4.6h-5.3v-5
	h-5.7v5l-0.1,4.6v10.2c0,7.9,6.5,8.8,9.8,8.8c1.1,0,1.8-0.1,1.8-0.1v-5.1C338.1,47.2,337.6,47.2,337,47.2z M271.5,42.8v-9.5h5.3
	v-4.6h-5.3v-5h-5.7v5l-0.1,4.6v10.2c0,7.9,6.5,8.8,9.8,8.8c1.1,0,1.8-0.1,1.8-0.1v-5.1c0,0-0.4,0.1-1.1,0.1
	C274.5,47.2,271.5,46.7,271.5,42.8z"/>
<path class="st0" d="M129.7,23.2c0,1.5-1.2,2.8-2.8,2.8h0c-1.5,0-2.8-1.2-2.8-2.8l0,0c0-1.5,1.2-2.8,2.8-2.8h0
	C128.4,20.4,129.7,21.7,129.7,23.2L129.7,23.2z"/>
<path class="st0" d="M72.6,48c-0.7,0-1.1-0.4-1.1-1.1V21.7c0-2.3-1-3.3-3.3-3.3h-1.7v5.5v1.7v2.1c0,1,0.1,1.8,0.1,1.8h-0.1
	c0,0-2-4.1-8.1-4.1c-7,0-11.9,5.4-11.9,13.8c0,8.2,4.5,13.8,11.6,13.8c6.4,0,8.6-4.8,8.6-4.8h0.1c0,0-0.1,0.6-0.1,1.3
	c0,1.8,0.9,2.8,3.2,2.8h4.8V48H72.6z M59,48.5c-4.4,0-7.4-3.7-7.4-9.4c0-6,3.4-9.4,7.5-9.4c5,0,7.5,4.7,7.5,9.3
	C66.6,45.8,62.9,48.5,59,48.5z"/>
<path class="st2" d="M20.4,16.8c1.5,0,3.6,0.5,6.3,3.5l0.2,0.2l11.8,11.8l15.1-14.7C57,14.3,57,9,53.8,5.7
	c-3.2-3.3-8.5-3.4-11.9-0.2l-3.2,3.1C33.5,3,26.8,0,20.4,0C15,0,9.9,2,6.2,5.5C2.4,9,0,14.1,0,19.7c0,6.2,2.9,12.3,8,17.4
	c4.1,4.1,20.3,19.8,20.3,19.8c1.6,1.6,3.7,2.4,5.8,2.4c2.2,0,4.4-0.8,6-2.5c3.2-3.3,3.1-8.6-0.2-11.9c0,0-16.2-15.7-20.1-19.6
	c-2.7-2.8-3.1-4.6-3.1-5.5c0-0.9,0.3-1.4,0.9-2C18.2,17.2,19.1,16.8,20.4,16.8z M16.3,28.9c4,3.9,20.1,19.7,20.2,19.7
	c1.3,1.3,1.3,3.4,0.1,4.7c-0.6,0.7-1.5,1-2.4,1c-0.8,0-1.7-0.3-2.3-0.9c0,0-16.2-15.7-20.2-19.7c-4.4-4.4-6.5-9.2-6.5-13.8
	c0-8.4,7.1-14.6,15.3-14.6c5,0,10.4,2.3,14.9,7.3l5.7,5.7c1.3,1.3,1.3,3.4,0,4.7c-1.3,1.3-3.4,1.3-4.7,0l-5.8-5.8l-0.1-0.1
	c-3.5-3.9-7-5.2-10.1-5.2c-5,0-8.7,3.5-8.7,8C11.7,22.2,12.8,25.4,16.3,28.9z"/>
<path class="st0" d="M20.4,0C15,0,9.9,2,6.2,5.5C2.4,9,0,14.1,0,19.7c0,6.2,2.9,12.3,8,17.4c4.1,4.1,20.3,19.8,20.3,19.8
	c1.6,1.6,3.7,2.4,5.8,2.4c1,0,2.1-0.2,3.1-0.6c5.1-5.3-0.4-9.9-0.4-9.9l-0.4-0.3c1.3,1.3,1.3,3.4,0.1,4.7c-0.6,0.7-1.5,1-2.4,1
	c-0.8,0-1.7-0.3-2.3-0.9c0,0-16.2-15.7-20.2-19.7c-4.4-4.4-6.5-9.2-6.5-13.8c0-8.4,7.1-14.6,15.3-14.6"/>
<linearGradient id="SVGID_1_" gradientUnits="userSpaceOnUse" x1="24.6314" y1="2.9236" x2="35.2114" y2="11.8618">
	<stop  offset="0" style="stop-color:#555B69"/>
	<stop  offset="0.299" style="stop-color:#528098"/>
	<stop  offset="0.8846" style="stop-color:#4CC5F2"/>
</linearGradient>
<path class="st3" d="M19,0l0.6,5.1c0,0,0.8,0,0.8,0c4.8,0,10,2.2,14.4,6.8l3.8-3.4C33.4,3,26.8,0,20.4,0C20.3,0,19,0,19,0z"/>
</svg>
