<?xml version="1.0" encoding="utf-8"?>
<!-- Generator: Adobe Illustrator 19.0.0, SVG Export Plug-In . SVG Version: 6.00 Build 0)  -->
<svg version="1.1" id="Layer_1" xmlns="http://www.w3.org/2000/svg" xmlns:xlink="http://www.w3.org/1999/xlink" x="0px" y="0px"
	 viewBox="0 0 318 143" style="enable-background:new 0 0 318 143;" xml:space="preserve">
<style type="text/css">
	.st0{fill:#3B3B3C;}
	.st1{fill:#A60F37;}
</style>
<path class="st0" d="M161.9,70h9.7l-11.3,65.9h-9.1l-9.6-49.6l-9.5,49.6h-9.1L111.7,70h9.8l6.2,48.9l9-48.9h9.7l9.2,48.9L161.9,70z
	 M179.3,135.9h9V70h-9V135.9z M225.4,111.7L209.8,70h-8.3v65.9h9V94.3l15.7,41.7h8.1V70h-9L225.4,111.7z M247.6,135.9h26.2v-8.2
	h-17.2v-20.8h14.8v-8.2h-14.8V78.2h17.2V70h-26.2V135.9z M305,99.7l-7.3-3c-4.9-2.1-5.8-3.6-5.8-9.9c0-3.3,0.7-5.8,2.1-7.3
	c1.1-1.2,2.7-1.8,4.6-1.8c2.1,0,3.8,0.7,4.8,2c1.6,1.9,1.9,4.2,1.9,7.4v0.6h9v-0.6c0-6.6-1.3-10.6-4.4-13.7
	c-2.7-2.6-6.4-3.9-11.1-3.9c-4.2,0-7.9,1.3-10.7,3.9c-3.3,3.1-5.1,7.8-5.1,13.7c0,9.9,2.1,13.8,9.2,16.7l7.4,3c4.9,2,6,4.1,6,11.4
	c0,4-0.3,6.4-1.9,8.2c-1.2,1.3-2.9,1.9-5.1,1.9c-2.1,0-3.9-0.6-4.9-1.8c-1.5-1.6-2-3.6-2-8.1v-0.6h-9v0.6c0,7.2,1.1,11,4.2,14
	c2.7,2.7,6.7,4.1,11.8,4.1c5,0,9.1-1.4,11.9-4.1c3.5-3.5,4.2-8.3,4.2-14.5C314.5,108.2,313.1,103,305,99.7 M88,104.1
	c2.1-1.6,4-3.6,5.4-6C98.5,89.2,96,78,88,72c8-6,10.5-17.3,5.3-26.2c-3.6-6.2-10.3-10.1-17.5-10.1c-2.7,0-5.4,0.6-7.9,1.6
	c-1.2-10-9.7-17.7-20-17.7c-9.5,0-17.5,6.6-19.6,15.5c-0.7,0-1.4,0.1-2.2,0.1c-0.1,0-0.2,0-0.4,0c0.1-0.1,0.1-0.2,0.2-0.3
	c0.5-0.8,0.9-1.5,1.3-2.2c0.8-1.7,0.8-3.3,0.1-4.5c-0.7-1.2-2.1-1.8-4-1.8l-0.3,0c-0.7,0-1.4,0-2.2,0.1l-0.7,0
	c0.1-0.2,0.2-0.4,0.3-0.5c0.5-0.9,1-1.8,1.3-2.8c0.6-1.6,0.5-3-0.2-4.1c-0.7-1.1-2-1.7-3.7-1.8c-0.4,0-0.8,0-1.1,0
	c-0.5,0-1.1,0-1.6,0c-0.2,0-0.4,0-0.6,0l0.2-0.5c0.5-1.1,0.9-2.1,1.3-3.1c0.5-1.2,0.4-2.4-0.1-3.4c-0.5-0.9-1.4-1.6-2.6-1.9
	c-1.3-0.3-2.6-0.4-4-0.5c-0.3,0-0.7-0.1-1-0.1c0.1-0.1,0.1-0.3,0.2-0.4C9,6.6,9.4,5.8,9.7,5c0.4-1.2,0.5-2.1,0.1-2.8
	C9.3,1.4,8.6,0.9,7.3,0.6C6.6,0.4,5.8,0.3,5.1,0.2C4.8,0.1,4.5,0.1,4.1,0L3.6,0.2C3.5,0.3,3.4,0.4,3.3,0.6l0.1,0.8l2.5,1.8
	c-0.2,0.3-0.3,0.7-0.5,1C5.1,4.9,4.7,5.6,4.4,6.3C3.6,8,3.5,9.5,4.2,10.7c0.7,1.2,2,1.9,3.9,2.1c0.9,0.1,1.8,0.1,2.7,0.1l0.3,0
	c-0.1,0.2-0.2,0.5-0.3,0.7c-0.5,1-0.9,2-1.3,3C9,18,9.1,19.3,9.8,20.4c0.7,1.1,2,1.7,3.5,1.8c1,0,1.9,0,2.9,0.1c0.2,0,0.4,0,0.6,0
	c-0.1,0.1-0.2,0.3-0.2,0.4c-0.5,0.9-0.9,1.6-1.3,2.4c-0.8,1.7-0.8,3.4-0.1,4.6c0.4,0.8,1.4,1.7,3.4,1.8c0.7,0,1.4,0.1,2,0.1l1.3,0
	c-0.1,0.1-0.2,0.3-0.2,0.4c-0.5,0.9-1,1.7-1.5,2.7c-0.1,0.3-0.2,0.7-0.3,1c-7.1,0.1-13.7,3.9-17.2,10.1c-2.7,4.7-3.4,10.1-2,15.3
	C1.9,65.5,4.5,69.3,8,72C0,78-2.4,89.2,2.7,98.1c3.6,6.2,10.3,10.1,17.5,10.1c2.7,0,5.4-0.6,7.8-1.6c1.2,9.9,9.7,17.7,20,17.7h0
	c2.8,0,5.4-0.6,7.9-1.6c1.2,9.9,9.7,17.7,20,17.7c11.1,0,20.2-9,20.2-20.2C96.1,113.6,92.9,107.8,88,104.1 M65.5,82
	c2.1-3.7,6.1-6,10.3-6c0,0,0.1,0,0.1,0c0,0,0.1,0,0.1,0c2.1,0,4.1,0.6,5.9,1.6c5.7,3.3,7.7,10.7,4.4,16.4c-2.1,3.7-6.1,6-10.4,6
	c-2.1,0-4.2-0.6-6-1.6C64.2,95.1,62.2,87.8,65.5,82 M75.9,132.2c-6.6,0-12-5.4-12-12c0-6.6,5.4-12,12-12s12,5.4,12,12
	C87.9,126.8,82.5,132.2,75.9,132.2"/>
<path class="st1" d="M26.2,45.5c2.8,1.6,4.8,4.2,5.6,7.3c0.8,3.1,0.4,6.3-1.2,9.1c-2.1,3.7-6.1,6-10.4,6c0,0,0,0,0,0
	c0,0-0.1,0-0.1,0c-2.1,0-4.1-0.6-5.9-1.6c-2.8-1.6-4.8-4.2-5.6-7.3c-0.8-3.1-0.4-6.3,1.2-9.1c2.1-3.7,6.1-6,10.4-6
	C22.3,43.9,24.4,44.4,26.2,45.5 M48.1,92.1L48.1,92.1L48.1,92.1c-6.7,0-12,5.4-12,12c0,6.6,5.4,12,12,12c6.6,0,12-5.4,12-12
	C60,97.5,54.7,92.1,48.1,92.1 M48,59.9c-6.6,0-12,5.4-12,12c0,6.6,5.4,12,12,12h0.1c6.6,0,12-5.4,12-12C60,65.3,54.7,59.9,48,59.9
	 M86.3,49.9c-2.1-3.7-6.1-6-10.4-6c-2.1,0-4.2,0.6-6,1.6c-5.7,3.3-7.7,10.7-4.4,16.4c2.1,3.7,6.1,6,10.3,6c0,0,0.1,0,0.1,0
	c0,0,0.1,0,0.1,0c2.1,0,4.1-0.6,5.9-1.6C87.6,63,89.6,55.6,86.3,49.9 M20.2,76C20.2,76,20.2,76,20.2,76c-0.1,0-0.1,0-0.1,0
	c-2.1,0-4.1,0.6-5.9,1.6c-5.7,3.3-7.7,10.7-4.4,16.4c2.1,3.7,6.1,6,10.4,6c2.1,0,4.2-0.6,6-1.6c5.7-3.3,7.7-10.7,4.4-16.4
	C28.4,78.3,24.5,76.1,20.2,76 M48,27.8c-6.6,0-12,5.4-12,12c0,6.6,5.4,12,12,12c6.6,0,12-5.4,12-12C60,33.2,54.7,27.8,48,27.8"/>
</svg>
